<svg width="74" height="102" viewBox="0 0 74 102" fill="none" xmlns="http://www.w3.org/2000/svg">
<g filter="url(#filter0_d_87_98)">
<path d="M44.146 3.2851C51.8862 2.43508 59.7181 3.49279 66.948 6.36456C22.5739 11.2377 23.5207 89.3902 68 93.2029C60.8418 96.2464 53.0378 97.4907 45.2793 96.8257C37.5208 96.1606 30.0473 93.6067 23.5207 89.3902C16.9942 85.1737 11.6161 79.4247 7.86289 72.6524C4.10963 65.8802 2.09705 58.2937 2.00342 50.5651C1.90979 42.8365 3.738 35.2042 7.3261 28.3443C10.9142 21.4845 16.1515 15.6088 22.5739 11.2377C28.9964 6.86665 36.4059 4.13512 44.146 3.2851Z" fill="url(#paint0_linear_87_98)"/>
</g>
<defs>
<filter id="filter0_d_87_98" x="0" y="0" width="74" height="102" filterUnits="userSpaceOnUse" color-interpolation-filters="sRGB">
<feFlood flood-opacity="0" result="BackgroundImageFix"/>
<feColorMatrix in="SourceAlpha" type="matrix" values="0 0 0 0 0 0 0 0 0 0 0 0 0 0 0 0 0 0 127 0" result="hardAlpha"/>
<feOffset dx="2" dy="1"/>
<feGaussianBlur stdDeviation="2"/>
<feComposite in2="hardAlpha" operator="out"/>
<feColorMatrix type="matrix" values="0 0 0 0 0.227451 0 0 0 0 0.501961 0 0 0 0 0.945098 0 0 0 0.25 0"/>
<feBlend mode="normal" in2="BackgroundImageFix" result="effect1_dropShadow_87_98"/>
<feBlend mode="normal" in="SourceGraphic" in2="effect1_dropShadow_87_98" result="shape"/>
</filter>
<linearGradient id="paint0_linear_87_98" x1="68" y1="60.9302" x2="-20.9585" y2="27.2197" gradientUnits="userSpaceOnUse">
<stop stop-color="#3A80F1"/>
<stop offset="1" stop-color="white"/>
</linearGradient>
</defs>
</svg>
